<svg width="28" height="29" viewBox="0 0 28 29" fill="none" xmlns="http://www.w3.org/2000/svg">
<path fill-rule="evenodd" clip-rule="evenodd" d="M0 14.5C0 6.7375 6.16 0.4375 13.75 0.4375C21.34 0.4375 27.5 6.7375 27.5 14.5C27.5 22.2625 21.34 28.5625 13.75 28.5625C6.16 28.5625 0 22.2625 0 14.5ZM2.75 14.5C2.75 20.7016 7.68625 25.75 13.75 25.75C19.8137 25.75 24.75 20.7016 24.75 14.5C24.75 8.29844 19.8137 3.25 13.75 3.25C7.68625 3.25 2.75 8.29844 2.75 14.5Z" fill="#7FDA89"/>
<path fill-rule="evenodd" clip-rule="evenodd" d="M13.75 25.75C7.68625 25.75 2.75 20.7016 2.75 14.5C2.75 8.29844 7.68625 3.25 13.75 3.25C19.8137 3.25 24.75 8.29844 24.75 14.5C24.75 20.7016 19.8137 25.75 13.75 25.75ZM11 17.5516L20.0613 8.28437L22 10.2812L11 21.5312L5.5 15.9062L7.43875 13.9234L11 17.5516Z" fill="#7FDA89"/>
<path d="M20.0613 8.28437L11 17.5516L7.43875 13.9234L5.5 15.9062L11 21.5312L22 10.2812L20.0613 8.28437Z" fill="white"/>
</svg>
